# xmcd CD database file
#
# Track frame offsets:
#	150
#	13340
#	42140
#	73330
#	113845
#	141047
#	163375
#	194437
#	214065
#
# Disc length: 3369 seconds
#
# Revision: 0
# Processed by: cddbd v1.4PL0 Copyright (c) Steve Scherf et al.
# Submitted via: CDex 1.50Beta7
#
DISCID=8a0d2709
DTITLE=Emmanuel Bex - Organique
DYEAR=1993
DGENRE=Jazz
TTITLE0=Chant de Noel
TTITLE1=Bleu et vert
TTITLE2=Cristal city
TTITLE3=Nature boy
TTITLE4=Mimine
TTITLE5=Sous le vent
TTITLE6=Papouk
TTITLE7=Azucar y calor
TTITLE8=Dans la foret
EXTD=YEAR: 1993
EXTT0=
EXTT1=
EXTT2=
EXTT3=
EXTT4=
EXTT5=
EXTT6=
EXTT7=
EXTT8=
PLAYORDER=
